<svg version="1.1" xmlns="http://www.w3.org/2000/svg" xmlns:xlink="http://www.w3.org/1999/xlink" width="42.875" height="41" viewBox="0,0,42.875,41"><g transform="translate(-299.8125,-159.1875)"><g stroke-miterlimit="10"><path d="M335.09944,174.46903z" fill="#000000" stroke="#000000" stroke-width="0"/><path d="M302.8125,180c0,-9.49239 7.69511,-17.1875 17.1875,-17.1875c9.49239,0 17.1875,7.69511 17.1875,17.1875c0,9.49239 -7.69511,17.1875 -17.1875,17.1875c-9.49239,0 -17.1875,-7.69511 -17.1875,-17.1875z" fill="#ff5252" stroke-opacity="0.37255" stroke="#0036ff" stroke-width="6"/><path d="M326.5625,187.5c0,-3.62437 2.93813,-6.5625 6.5625,-6.5625c3.62437,0 6.5625,2.93813 6.5625,6.5625c0,3.62437 -2.93813,6.5625 -6.5625,6.5625c-3.62437,0 -6.5625,-2.93813 -6.5625,-6.5625z" fill="#ff5252" stroke-opacity="0.37255" stroke="#0011ff" stroke-width="6"/><path d="M326.5625,168.75c0,-3.62437 2.93813,-6.5625 6.5625,-6.5625c3.62437,0 6.5625,2.93813 6.5625,6.5625c0,3.62437 -2.93813,6.5625 -6.5625,6.5625c-3.62437,0 -6.5625,-2.93813 -6.5625,-6.5625z" fill="#ff5252" stroke-opacity="0.37255" stroke="#0800ff" stroke-width="6"/></g></g></svg>